<svg version="1.2" baseProfile="tiny" xmlns="http://www.w3.org/2000/svg" viewBox="0 0 545 96"><g fill="#FFF"><path d="M42.9 92.8v-6c-5.2 3.5-10.2 7.8-20.5 7.8C7.2 94.6.5 83.8.5 74.2c0-8.3 5.8-15.7 14.1-19.2 4.6-1.9 11.6-3.3 26.4-6.1v-3.7c0-2.3-.4-8.1-7.6-8.1-8.3 0-9.9 4.9-10.4 7.8H3.4c0-14.7 13.6-20.7 28.2-20.7 11.5 0 28.8 3.1 28.8 19.2v39c0 5.8.3 7.9 1.9 10.4H42.9zM28.3 65c-6.8 2.2-8.4 5.4-8.4 8.3 0 2.3 1.9 6.8 7.6 6.8 7.7 0 13.6-6.9 13.6-16.4v-2.9L28.3 65zM110.4 92.8V51.6c0-6.3-1.8-11.5-9.7-11.5-9.1 0-10.4 6.4-10.4 15.4v37.4H70.6V26h20v5.9c3.2-3.8 9.5-7.6 18.8-7.6 13.6 0 20.7 6.9 20.7 20.5v48h-19.7zM165 39.7v32c0 4.5 2 5.5 5.1 5.5 1.4 0 6.9-.1 6.9-.1v15.2c-1.3.3-5.2 1-12.4 1-10.8 0-19.1-3.3-19.1-18.9V39.6h-9.7v-12h9.7V6.7H165v21h13v12h-13zM188.2 17.7V2.4h19.6v15.2h-19.6zm0 75.1V26h19.6v66.8h-19.6zM244 39.6v53.3h-19.6V39.6h-10.5v-12h10.5V18c0-11.6 8.6-17 20.1-17 4.6 0 11 1 11.8 1.2V17h-3.6c-8.2 0-8.8 1.7-8.8 6.5v4H257v12h-13zM301.7 92.8v-6c-5.2 3.5-10.2 7.8-20.5 7.8-15.2 0-21.9-10.8-21.9-20.4 0-8.3 5.8-15.7 14.1-19.2 4.6-1.9 11.6-3.3 26.4-6.1v-3.7c0-2.3-.4-8.1-7.6-8.1-8.3 0-9.9 4.9-10.4 7.8h-19.7c0-14.7 13.6-20.7 28.2-20.7 11.5 0 28.8 3.1 28.8 19.2v39c0 5.8.3 7.9 1.9 10.4h-19.3zM287.1 65c-6.8 2.2-8.4 5.4-8.4 8.3 0 2.3 1.9 6.8 7.6 6.8 7.7 0 13.6-6.9 13.6-16.4v-2.9L287.1 65zM332 17.7V2.4h19.6v15.2H332zm0 75.1V26h19.6v66.8H332zM401.6 92.8V51.6c0-6.3-1.8-11.5-9.7-11.5-9.1 0-10.4 6.4-10.4 15.4v37.4h-19.7V26h20v5.9c3.2-3.8 9.5-7.6 18.8-7.6 13.6 0 20.7 6.9 20.7 20.5v48h-19.7zM457 39.6v53.3h-19.6V39.6h-10.5v-12h10.5V18c0-11.6 8.6-17 20.1-17 4.6 0 11 1 11.8 1.2V17h-3.6c-8.2 0-8.8 1.7-8.8 6.5v4H470v12h-13zM508.3 94.9c-17.4 0-35.8-9.5-35.8-35.8 0-16.9 10.2-35.1 35.2-35.1 28 0 36.6 19.5 36.6 35.5 0 21.5-13.6 35.4-36 35.4zm-.8-55.3c-7.4 0-15.2 5.6-15.2 19.6 0 11.1 4.7 20 16.3 20 10.9 0 15.7-9.1 15.7-19.1 0-14.3-6-20.5-16.8-20.5z"/></g></svg>
