<svg id="Layer_1" data-name="Layer 1" xmlns="http://www.w3.org/2000/svg" viewBox="0 0 572.24 237.07"><title>logo</title><path d="M33.88,240V211.35c6.7-1,10.06-1.51,16.77-2.46q0-87.47,0-174.93c-6.71-.92-10.07-1.4-16.77-2.38V2.93q41.38,7.86,83,13.71c0,10.12,0,15.17,0,25.29-8.4-.87-12.6-1.32-21-2.28q0,81.68,0,163.35a1970.28,1970.28,0,0,1,476.34,3.54v-43q16.92,1.16,33.83,2.42v74A1498.43,1498.43,0,0,0,33.88,240Z" transform="translate(-33.88 -2.93)"/><path d="M207.1,182.18c-17.47.72-36.32-5.54-47.52-19.63-13.75-17.3-17.9-40-17.9-60.75,0-20.45,4-43,17.76-59.91C170.76,28,189.86,22.63,207.1,23.83c17.94,1.25,36,10,47.75,23.72,13.33,15.61,18,36.9,18,56s-4.61,40.36-18,55.85C243.11,173,225,181.44,207.1,182.18Zm0-25.73q6.52-.19,9.71-4.25c2.13-2.7,3.68-7.77,4.52-15.12,1.29-11.17,1.33-22.62,1.33-33.87s0-22.73-1.33-33.9c-.85-7.37-2.4-12.48-4.52-15.23s-5.37-4.26-9.71-4.5-7.47.91-9.64,3.47-3.72,7.63-4.52,15.09c-1.23,11.43-1.26,23.14-1.26,34.65s0,23.24,1.26,34.69c.8,7.49,2.35,12.6,4.52,15.23S202.85,156.57,207.1,156.45Z" transform="translate(-33.88 -2.93)"/><path d="M371.43,130.53l-12.85,0v-22q29.16-.11,58.32-.34c.06,11.25-.59,22.83-3.61,33.65a50.53,50.53,0,0,1-11.9,21.41,48.51,48.51,0,0,1-20.13,12.73c-7.89,2.66-16.87,3.84-26.83,3.72-17.63-.21-36.73-6.21-48.73-19.65-13.75-15.4-17.72-36.25-17.8-55.5-.08-18.91,2.59-40.15,14.46-56.35C311.61,35.5,327.28,28,342.92,28a41.29,41.29,0,0,1,30,12.51l.54,0v-11q15.32-.53,30.63-1.4,0,25.63,0,51.27-15.31.39-30.63.62-.4-14-5.55-20.84a15.94,15.94,0,0,0-13.72-6.66c-6.87.12-11.5,3.31-13.19,9.23-3.43,12-2.86,25.92-2.88,38.7,0,11.61,0,23.4,1.41,34.9.9,7.57,2.57,12.77,4.89,15.51S350.18,155,354.7,155C367.34,155,372,141.43,371.43,130.53Z" transform="translate(-33.88 -2.93)"/><path d="M495.84,186.21c-17.93-1.67-36.26-10.54-47.49-25-13.14-16.92-17.94-38.05-17.94-58.22s4.87-41.44,17.81-58.62c11.18-14.84,29.53-24.3,47.62-26.76,17.56-2.39,36.17,3.51,47.48,17.79,14.58,18.41,17.82,42.85,17.82,64.8,0,22.35-3.44,46.89-17.82,65.87C532.22,180.71,513.79,187.88,495.84,186.21Zm0-27.4c4.33.2,7.55-1.07,9.67-3.86s3.66-8.23,4.5-16.25c1.29-12.28,1.33-24.84,1.33-37.14s0-24.82-1.33-37.08c-.84-8-2.38-13.35-4.5-16s-5.34-3.82-9.67-3.44-7.45,2.06-9.61,5-3.71,8.43-4.51,16.25c-1.22,11.88-1.26,24-1.26,35.92s0,24,1.26,35.87c.8,7.79,2.35,13.18,4.51,16.07S491.59,158.61,495.84,158.81Z" transform="translate(-33.88 -2.93)"/></svg>